<svg xmlns="http://www.w3.org/2000/svg" xmlns:xlink="http://www.w3.org/1999/xlink" width="173.501" height="118.396" viewBox="0 0 173.501 118.396"><defs><style>.a{fill:none;}.b{clip-path:url(#a);}.c{fill:#008acf;}.d{fill:#6e2a7d;}.e{fill:#2b1d63;}.f{fill:#fff;}</style><clipPath id="a"><path class="a" d="M270.8,114.593A27.605,27.605,0,0,0,260.628,103.4c-.212-.526-.437-1.048-.686-1.562-6.019-12.447-21.438-18.685-40.636-18.327-17.542-5.112-42.556-2.038-67.014,9.791-38.024,18.39-60.3,50.97-49.758,72.771,5.113,10.572,17.006,16.666,32.237,18.044,12.557,19.08,50.028,20.774,86.275,3.243C259.07,168.974,281.347,136.394,270.8,114.593Z"/></clipPath></defs><g transform="translate(-99.918 -81.138)"><g class="b"><ellipse class="c" cx="76.478" cy="43.847" rx="76.478" ry="43.847" transform="translate(114.024 141.717) rotate(-25.81)"/><ellipse class="d" cx="76.478" cy="43.847" rx="76.478" ry="43.847" transform="translate(83.451 126.605) rotate(-25.81)"/><ellipse class="e" cx="76.478" cy="43.847" rx="76.478" ry="43.847" transform="translate(103.162 128.965) rotate(-25.81)"/><path class="a" d="M139.162,100.767c-9.97,10.34-15.973,23.582-15.991,38.005s5.952,27.68,15.9,38.045c14.38,5.814,32.151,9.268,51.371,9.292,23.547.029,44.932-5.095,60.576-13.416a52.806,52.806,0,0,0,.084-67.526c-15.624-8.359-37-13.536-60.543-13.565C171.336,91.578,153.556,94.988,139.162,100.767Z"/><path class="a" d="M250.528,104.462c-12.672-15.407-33.6-25.506-57.238-25.535-21.419-.027-40.63,8.221-53.5,21.207,14.7-5.778,32.3-8.887,50.77-8.864C213.082,91.3,234.3,95.974,250.528,104.462Z"/><path class="a" d="M138.423,101.066c-20.971,8.607-34.561,22.287-34.58,37.682s13.537,29.11,34.487,37.768c-9.7-10.346-15.51-23.476-15.493-37.744S128.7,111.388,138.423,101.066Z"/><path class="a" d="M139.69,177.452c12.843,13.017,32.033,21.312,53.452,21.339,23.639.029,44.591-10.018,57.3-25.393-16.253,8.447-37.478,13.071-60,13.043C171.964,186.419,154.375,183.266,139.69,177.452Z"/><path class="a" d="M251.83,105.559a53.069,53.069,0,0,1-.083,66.745c15.675-8.535,25.389-20.326,25.405-33.342S267.483,114.133,251.83,105.559Z"/><path class="f" d="M251.54,103.233c-.246-.135-.5-.266-.745-.4C237.88,86.668,216.228,76.029,191.728,76c-22.209-.027-42.1,8.667-55.278,22.311a96.488,96.488,0,0,0-10.138,4.768c-16.771,9.16-26.016,21.365-26.032,34.369s9.2,25.232,25.947,34.434a96.473,96.473,0,0,0,10.126,4.793c13.142,13.676,33.014,22.419,55.223,22.447,24.5.03,46.178-10.554,59.133-26.688.248-.133.5-.263.746-.4,16.771-9.159,26.016-21.365,26.032-34.369S268.289,112.434,251.54,103.233ZM191.728,76.339c24.078.029,45.394,10.345,58.3,26.084-16.533-8.671-38.141-13.448-61.086-13.476C170.126,88.924,152.2,92.1,137.229,98,150.344,84.737,169.911,76.312,191.728,76.339Zm58.882,26.805a54.061,54.061,0,0,1-.085,68.978c-15.935,8.5-37.717,13.735-61.7,13.705-19.577-.024-37.679-3.552-52.325-9.491-10.13-10.589-16.211-24.13-16.193-38.864s6.133-28.26,16.288-38.824c14.662-5.9,32.772-9.386,52.349-9.362C212.927,89.316,234.7,94.6,250.61,103.144Zm-149.991,34.3c.02-15.726,13.862-29.7,35.223-38.493-9.909,10.544-15.858,23.942-15.876,38.517s5.9,27.988,15.781,38.557C114.408,167.183,100.6,153.174,100.619,137.447Zm90.957,61.334c-21.816-.027-41.363-8.5-54.444-21.8,14.958,5.939,32.874,9.159,51.691,9.183,22.944.028,44.564-4.7,61.119-13.325C237,188.548,215.655,198.811,191.576,198.781Zm59.694-27.057a54.333,54.333,0,0,0,.085-68.181c15.944,8.759,25.809,20.828,25.793,34.123S267.236,163.006,251.27,171.724Z"/><path class="a" d="M241.976,111.345a1.532,1.532,0,1,0,1.535,1.527A1.534,1.534,0,0,0,241.976,111.345Zm.038,2.115a.756.756,0,0,0,.5-.225l.254.278a1.128,1.128,0,0,1-.781.34.972.972,0,1,1,.02-1.942,1.108,1.108,0,0,1,.762.319l-.254.306a.717.717,0,0,0-.5-.249.587.587,0,0,0,0,1.173Z"/><path class="f" d="M241.976,110.911a1.965,1.965,0,1,0,1.951,1.962A1.963,1.963,0,0,0,241.976,110.911Zm-.016,3.5a1.532,1.532,0,1,1,1.551-1.536A1.535,1.535,0,0,1,241.96,114.408Z"/><path class="f" d="M242.015,112.287a.717.717,0,0,1,.5.249l.254-.306a1.108,1.108,0,0,0-.762-.319.972.972,0,1,0-.02,1.942,1.128,1.128,0,0,0,.781-.34l-.254-.278a.756.756,0,0,1-.5.225.587.587,0,0,1,0-1.173Z"/><path class="f" d="M197.963,115.113l-16.305,26.406L174.4,115.084l-9.464-.012-9.58,42.573,9.443.012,5.569-24.914,4.767,17.965,10.342.013,10.963-17.665-3.2,24.637,9.449.012,5.423-42.578Z"/><path class="f" d="M236.7,150.816a12.259,12.259,0,0,0,1.182-5.4,10.5,10.5,0,0,0-.851-4.282,15.541,15.541,0,0,0-2.226-3.605,21.209,21.209,0,0,0-3.194-3.1c-1.186-.939-2.453-1.927-3.765-2.936a32.331,32.331,0,0,1-3.723-3.15,3.718,3.718,0,0,1-1.107-2.6,2.881,2.881,0,0,1,1.553-2.894,8.81,8.81,0,0,1,3.716-.689,16.305,16.305,0,0,1,5.016.853,25.172,25.172,0,0,1,4.542,1.973l2.042-7.326a24.3,24.3,0,0,0-12.3-3.277,20.38,20.38,0,0,0-6.01.823,13.511,13.511,0,0,0-4.586,2.38,10.2,10.2,0,0,0-2.92,3.895,13.593,13.593,0,0,0-1.024,5.41,11.664,11.664,0,0,0,.661,4.034,13.091,13.091,0,0,0,1.873,3.406,17.953,17.953,0,0,0,2.87,2.972,43.212,43.212,0,0,0,3.592,2.669,27.655,27.655,0,0,1,4.408,3.447,4.405,4.405,0,0,1,1.333,3.086,3.594,3.594,0,0,1-.547,2.028,4.1,4.1,0,0,1-1.448,1.311,6.447,6.447,0,0,1-1.987.693,12.278,12.278,0,0,1-2.191.194,21.948,21.948,0,0,1-5.359-.721,28.389,28.389,0,0,1-5.291-1.926l-2.108,7.588a26.083,26.083,0,0,0,6.338,2.089,34.454,34.454,0,0,0,6.733.747,21.572,21.572,0,0,0,6.46-.919,15.006,15.006,0,0,0,5.038-2.638A12.224,12.224,0,0,0,236.7,150.816Z"/><path class="f" d="M145.929,115.048l-1.725,9.746,10.234-1.521,1.453-8.214Z"/><path class="f" d="M148.358,157.636l5.287-29.88-10.234,1.521L138.4,157.624Z"/></g></g></svg>